<svg width="254" height="62" viewBox="0 0 254 62" fill="none" xmlns="http://www.w3.org/2000/svg">
<path d="M1 11C1 5.47715 5.47715 1 11 1H31C36.5228 1 41 5.47715 41 11V31C41 36.5228 36.5228 41 31 41H11C5.47715 41 1 36.5228 1 31V11Z" fill="#172554"/>
<path d="M21 31C21 25.4772 25.4772 21 31 21H51C56.5228 21 61 25.4772 61 31V51C61 56.5228 56.5228 61 51 61H31C25.4772 61 21 56.5228 21 51V31Z" fill="#2563EB"/>
<path d="M31 0.5C36.799 0.5 41.5 5.20101 41.5 11V20.5H51C56.799 20.5 61.5 25.201 61.5 31V51C61.5 56.799 56.799 61.5 51 61.5H31C25.201 61.5 20.5 56.799 20.5 51V41.5H11C5.20101 41.5 0.5 36.799 0.5 31V11C0.5 5.20101 5.20101 0.5 11 0.5H31Z" stroke="#EFF6FF" stroke-opacity="0.5"/>
<path d="M123.978 46.588C121.71 46.588 119.708 46.182 117.972 45.37C116.236 44.558 114.878 43.396 113.898 41.884C112.918 40.372 112.428 38.552 112.428 36.424V35.248H117.888V36.424C117.888 38.188 118.434 39.518 119.526 40.414C120.618 41.282 122.102 41.716 123.978 41.716C125.882 41.716 127.296 41.338 128.22 40.582C129.172 39.826 129.648 38.86 129.648 37.684C129.648 36.872 129.41 36.214 128.934 35.71C128.486 35.206 127.814 34.8 126.918 34.492C126.05 34.156 124.986 33.848 123.726 33.568L122.76 33.358C120.744 32.91 119.008 32.35 117.552 31.678C116.124 30.978 115.018 30.068 114.234 28.948C113.478 27.828 113.1 26.372 113.1 24.58C113.1 22.788 113.52 21.262 114.36 20.002C115.228 18.714 116.432 17.734 117.972 17.062C119.54 16.362 121.374 16.012 123.474 16.012C125.574 16.012 127.436 16.376 129.06 17.104C130.712 17.804 132 18.868 132.924 20.296C133.876 21.696 134.352 23.46 134.352 25.588V26.848H128.892V25.588C128.892 24.468 128.668 23.572 128.22 22.9C127.8 22.2 127.184 21.696 126.372 21.388C125.56 21.052 124.594 20.884 123.474 20.884C121.794 20.884 120.548 21.206 119.736 21.85C118.952 22.466 118.56 23.32 118.56 24.412C118.56 25.14 118.742 25.756 119.106 26.26C119.498 26.764 120.072 27.184 120.828 27.52C121.584 27.856 122.55 28.15 123.726 28.402L124.692 28.612C126.792 29.06 128.612 29.634 130.152 30.334C131.72 31.034 132.938 31.958 133.806 33.106C134.674 34.254 135.108 35.724 135.108 37.516C135.108 39.308 134.646 40.89 133.722 42.262C132.826 43.606 131.538 44.67 129.858 45.454C128.206 46.21 126.246 46.588 123.978 46.588ZM143.443 46V16.6H162.343V21.64H148.987V28.654H161.167V33.694H148.987V40.96H162.595V46H143.443ZM170.899 46V16.6H183.667C185.515 16.6 187.125 16.922 188.497 17.566C189.869 18.21 190.933 19.12 191.689 20.296C192.445 21.472 192.823 22.858 192.823 24.454V24.958C192.823 26.722 192.403 28.15 191.563 29.242C190.723 30.334 189.687 31.132 188.455 31.636V32.392C189.575 32.448 190.443 32.84 191.059 33.568C191.675 34.268 191.983 35.206 191.983 36.382V46H186.439V37.18C186.439 36.508 186.257 35.962 185.893 35.542C185.557 35.122 184.983 34.912 184.171 34.912H176.443V46H170.899ZM176.443 29.872H183.079C184.395 29.872 185.417 29.522 186.145 28.822C186.901 28.094 187.279 27.142 187.279 25.966V25.546C187.279 24.37 186.915 23.432 186.187 22.732C185.459 22.004 184.423 21.64 183.079 21.64H176.443V29.872ZM206.603 46L199.127 16.6H204.839L211.055 42.43H211.643L217.859 16.6H223.571L216.095 46H206.603ZM227.363 46L235.091 16.6H244.751L252.479 46H246.767L245.171 39.532H234.671L233.075 46H227.363ZM235.973 34.408H243.869L240.299 20.086H239.543L235.973 34.408Z" fill="#EFF6FF"/>
</svg>
