<svg width="232" height="60" viewBox="0 0 232 60" fill="none" xmlns="http://www.w3.org/2000/svg">
<path d="M0 10C0 4.47715 4.44015 0 9.91736 0H29.7521C35.2293 0 39.6694 4.47715 39.6694 10V30C39.6694 35.5228 35.2293 40 29.7521 40H9.91736C4.44015 40 0 35.5228 0 30V10Z" fill="#172554"/>
<path d="M20.3306 30C20.3306 24.4772 24.7707 20 30.2479 20H50.0826C55.5598 20 60 24.4772 60 30V50C60 55.5228 55.5598 60 50.0826 60H30.2479C24.7707 60 20.3306 55.5228 20.3306 50V30Z" fill="#2563EB"/>
<path d="M102.978 45.588C100.71 45.588 98.708 45.182 96.972 44.37C95.236 43.558 93.878 42.396 92.898 40.884C91.918 39.372 91.428 37.552 91.428 35.424V34.248H96.888V35.424C96.888 37.188 97.434 38.518 98.526 39.414C99.618 40.282 101.102 40.716 102.978 40.716C104.882 40.716 106.296 40.338 107.22 39.582C108.172 38.826 108.648 37.86 108.648 36.684C108.648 35.872 108.41 35.214 107.934 34.71C107.486 34.206 106.814 33.8 105.918 33.492C105.05 33.156 103.986 32.848 102.726 32.568L101.76 32.358C99.744 31.91 98.008 31.35 96.552 30.678C95.124 29.978 94.018 29.068 93.234 27.948C92.478 26.828 92.1 25.372 92.1 23.58C92.1 21.788 92.52 20.262 93.36 19.002C94.228 17.714 95.432 16.734 96.972 16.062C98.54 15.362 100.374 15.012 102.474 15.012C104.574 15.012 106.436 15.376 108.06 16.104C109.712 16.804 111 17.868 111.924 19.296C112.876 20.696 113.352 22.46 113.352 24.588V25.848H107.892V24.588C107.892 23.468 107.668 22.572 107.22 21.9C106.8 21.2 106.184 20.696 105.372 20.388C104.56 20.052 103.594 19.884 102.474 19.884C100.794 19.884 99.548 20.206 98.736 20.85C97.952 21.466 97.56 22.32 97.56 23.412C97.56 24.14 97.742 24.756 98.106 25.26C98.498 25.764 99.072 26.184 99.828 26.52C100.584 26.856 101.55 27.15 102.726 27.402L103.692 27.612C105.792 28.06 107.612 28.634 109.152 29.334C110.72 30.034 111.938 30.958 112.806 32.106C113.674 33.254 114.108 34.724 114.108 36.516C114.108 38.308 113.646 39.89 112.722 41.262C111.826 42.606 110.538 43.67 108.858 44.454C107.206 45.21 105.246 45.588 102.978 45.588Z" fill="#EFF6FF"/>
<path d="M122.443 45V15.6H141.343V20.64H127.987V27.654H140.167V32.694H127.987V39.96H141.595V45H122.443Z" fill="#EFF6FF"/>
<path d="M149.899 45V15.6H162.667C164.515 15.6 166.125 15.922 167.497 16.566C168.869 17.21 169.933 18.12 170.689 19.296C171.445 20.472 171.823 21.858 171.823 23.454V23.958C171.823 25.722 171.403 27.15 170.563 28.242C169.723 29.334 168.687 30.132 167.455 30.636V31.392C168.575 31.448 169.443 31.84 170.059 32.568C170.675 33.268 170.983 34.206 170.983 35.382V45H165.439V36.18C165.439 35.508 165.257 34.962 164.893 34.542C164.557 34.122 163.983 33.912 163.171 33.912H155.443V45H149.899ZM155.443 28.872H162.079C163.395 28.872 164.417 28.522 165.145 27.822C165.901 27.094 166.279 26.142 166.279 24.966V24.546C166.279 23.37 165.915 22.432 165.187 21.732C164.459 21.004 163.423 20.64 162.079 20.64H155.443V28.872Z" fill="#EFF6FF"/>
<path d="M185.603 45L178.127 15.6H183.839L190.055 41.43H190.643L196.859 15.6H202.571L195.095 45H185.603Z" fill="#EFF6FF"/>
<path d="M206.363 45L214.091 15.6H223.751L231.479 45H225.767L224.171 38.532H213.671L212.075 45H206.363ZM214.973 33.408H222.869L219.299 19.086H218.543L214.973 33.408Z" fill="#EFF6FF"/>
</svg>
