<svg width="60" height="60" viewBox="0 0 60 60" fill="none" xmlns="http://www.w3.org/2000/svg">
<path d="M0 10C0 4.47715 4.47715 0 10 0H50C55.5228 0 60 4.47715 60 10V50C60 55.5228 55.5228 60 50 60H10C4.47715 60 0 55.5228 0 50V10Z" fill="#DC2626" fill-opacity="0.2"/>
<path d="M19.9 18.52H27.7C30.2867 18.52 32.5333 19.0467 34.44 20.1C36.36 21.14 37.8533 22.6133 38.92 24.52C39.9867 26.4267 40.52 28.6733 40.52 31.26C40.52 33.8333 39.9867 36.0733 38.92 37.98C37.8533 39.8867 36.36 41.3667 34.44 42.42C32.5333 43.4733 30.2867 44 27.7 44H19.9V18.52ZM23.7 21.94V40.64H27.7C29.5133 40.64 31.0667 40.2333 32.36 39.42C33.6667 38.6067 34.6733 37.4933 35.38 36.08C36.0867 34.6667 36.44 33.06 36.44 31.26C36.44 29.46 36.0867 27.86 35.38 26.46C34.6733 25.0467 33.6667 23.94 32.36 23.14C31.0667 22.34 29.5133 21.94 27.7 21.94H23.7Z" fill="#DC2626"/>
</svg>
