<svg width="60" height="60" viewBox="0 0 60 60" fill="none" xmlns="http://www.w3.org/2000/svg">
<path d="M0 10C0 4.47715 4.47715 0 10 0H50C55.5228 0 60 4.47715 60 10V50C60 55.5228 55.5228 60 50 60H10C4.47715 60 0 55.5228 0 50V10Z" fill="#EA580C" fill-opacity="0.2"/>
<path d="M28.38 44.52C26.6467 44.52 25.0533 44.2133 23.6 43.6C22.1467 42.9733 20.9733 42.0467 20.08 40.82C19.2 39.5933 18.74 38.06 18.7 36.22H22.42C22.42 37.3267 22.6867 38.2333 23.22 38.94C23.7667 39.6467 24.4867 40.1733 25.38 40.52C26.2733 40.8533 27.26 41.02 28.34 41.02C29.4333 41.02 30.4 40.8533 31.24 40.52C32.08 40.1867 32.7267 39.74 33.18 39.18C33.6467 38.62 33.88 37.98 33.88 37.26C33.88 36.2867 33.58 35.5067 32.98 34.92C32.38 34.32 31.4667 33.8133 30.24 33.4L25.5 31.64C23.46 30.88 21.9067 30.0067 20.84 29.02C19.7733 28.02 19.24 26.6333 19.24 24.86C19.24 22.8467 20.0267 21.2133 21.6 19.96C23.1733 18.6933 25.3867 18.06 28.24 18.06C30.9467 18.06 33.0467 18.6867 34.54 19.94C36.0467 21.1933 36.9067 22.9 37.12 25.06H33.38C33.1933 23.9667 32.68 23.1 31.84 22.46C31.0133 21.82 29.8133 21.5 28.24 21.5C26.72 21.5 25.5333 21.8333 24.68 22.5C23.8267 23.1533 23.4 23.98 23.4 24.98C23.4 25.8067 23.6667 26.4667 24.2 26.96C24.7467 27.4533 25.5933 27.9 26.74 28.3L32.14 30.28C33.9933 30.9333 35.44 31.8133 36.48 32.92C37.52 34.0267 38.04 35.4333 38.04 37.14C38.04 38.58 37.6667 39.8533 36.92 40.96C36.1733 42.0667 35.08 42.94 33.64 43.58C32.2 44.2067 30.4467 44.52 28.38 44.52Z" fill="#EA580C"/>
</svg>
