<svg width="199" height="60" viewBox="0 0 199 60" fill="none" xmlns="http://www.w3.org/2000/svg">
<path d="M0 10C0 4.47715 4.44015 0 9.91736 0H29.7521C35.2293 0 39.6694 4.47715 39.6694 10V30C39.6694 35.5228 35.2293 40 29.7521 40H9.91736C4.44015 40 0 35.5228 0 30V10Z" fill="#172554"/>
<path d="M20.3306 30C20.3306 24.4772 24.7707 20 30.2479 20H50.0826C55.5598 20 60 24.4772 60 30V50C60 55.5228 55.5598 60 50.0826 60H30.2479C24.7707 60 20.3306 55.5228 20.3306 50V30Z" fill="#2563EB"/>
<path d="M87.999 44.046C86.179 44.046 84.506 43.724 82.98 43.08C81.454 42.422 80.222 41.449 79.284 40.161C78.36 38.873 77.877 37.263 77.835 35.331H81.741C81.741 36.493 82.021 37.445 82.581 38.187C83.155 38.929 83.911 39.482 84.849 39.846C85.787 40.196 86.823 40.371 87.957 40.371C89.105 40.371 90.12 40.196 91.002 39.846C91.884 39.496 92.563 39.027 93.039 38.439C93.529 37.851 93.774 37.179 93.774 36.423C93.774 35.401 93.459 34.582 92.829 33.966C92.199 33.336 91.24 32.804 89.952 32.37L84.975 30.522C82.833 29.724 81.202 28.807 80.082 27.771C78.962 26.721 78.402 25.265 78.402 23.403C78.402 21.289 79.228 19.574 80.88 18.258C82.532 16.928 84.856 16.263 87.852 16.263C90.694 16.263 92.899 16.921 94.467 18.237C96.049 19.553 96.952 21.345 97.176 23.613H93.249C93.053 22.465 92.514 21.555 91.632 20.883C90.764 20.211 89.504 19.875 87.852 19.875C86.256 19.875 85.01 20.225 84.114 20.925C83.218 21.611 82.77 22.479 82.77 23.529C82.77 24.397 83.05 25.09 83.61 25.608C84.184 26.126 85.073 26.595 86.277 27.015L91.947 29.094C93.893 29.78 95.412 30.704 96.504 31.866C97.596 33.028 98.142 34.505 98.142 36.297C98.142 37.809 97.75 39.146 96.966 40.308C96.182 41.47 95.034 42.387 93.522 43.059C92.01 43.717 90.169 44.046 87.999 44.046Z" fill="#172554"/>
<path d="M105.016 43.5V16.746H121.816V20.19H109.006V28.338H121.06V31.782H109.006V40.014H121.816V43.5H105.016Z" fill="#172554"/>
<path d="M129.093 43.5V16.746H138.669C141.791 16.746 144.164 17.488 145.788 18.972C147.426 20.442 148.245 22.381 148.245 24.789C148.245 27.169 147.426 29.094 145.788 30.564C144.164 32.034 141.791 32.769 138.669 32.769H133.083V43.5H129.093ZM143.856 43.5L136.443 31.194H140.748L149.043 43.5H143.856ZM133.083 30.039H138.312C140.216 30.039 141.665 29.584 142.659 28.674C143.653 27.75 144.15 26.56 144.15 25.104C144.15 23.606 143.681 22.416 142.743 21.534C141.819 20.638 140.461 20.19 138.669 20.19H133.083V30.039Z" fill="#172554"/>
<path d="M163.217 39.195L170.672 16.746H174.893L165.506 43.5H161.327L152.045 16.746H156.287L163.679 39.195H163.217Z" fill="#172554"/>
<path d="M175.123 43.5L184.279 16.746H189.214L198.097 43.5H193.897L191.818 37.116H181.486L179.323 43.5H175.123ZM182.494 34.05H190.831L186.673 21.555L182.494 34.05Z" fill="#172554"/>
</svg>
