<svg width="62" height="62" viewBox="0 0 62 62" fill="none" xmlns="http://www.w3.org/2000/svg">
<path d="M1 11C1 5.47715 5.47715 1 11 1H31C36.5228 1 41 5.47715 41 11V31C41 36.5228 36.5228 41 31 41H11C5.47715 41 1 36.5228 1 31V11Z" fill="#613DC2"/>
<path d="M21 31C21 25.4772 25.4772 21 31 21H51C56.5228 21 61 25.4772 61 31V51C61 56.5228 56.5228 61 51 61H31C25.4772 61 21 56.5228 21 51V31Z" fill="#8064CE"/>
<path d="M31 0.5C36.799 0.5 41.5 5.20101 41.5 11V20.5H51C56.799 20.5 61.5 25.201 61.5 31V51C61.5 56.799 56.799 61.5 51 61.5H31C25.201 61.5 20.5 56.799 20.5 51V41.5H11C5.20101 41.5 0.5 36.799 0.5 31V11C0.5 5.20101 5.20101 0.5 11 0.5H31Z" stroke="#EFF6FF" stroke-opacity="0.5"/>
</svg>
