<svg width="60" height="60" viewBox="0 0 60 60" fill="none" xmlns="http://www.w3.org/2000/svg">
<path d="M0 10C0 4.47715 4.47715 0 10 0H50C55.5228 0 60 4.47715 60 10V50C60 55.5228 55.5228 60 50 60H10C4.47715 60 0 55.5228 0 50V10Z" fill="#16A34A" fill-opacity="0.2"/>
<path d="M19.42 18.52H23.22V34.62C23.22 36.8867 23.7867 38.52 24.92 39.52C26.0667 40.52 27.5533 41.02 29.38 41.02C31.2067 41.02 32.6867 40.52 33.82 39.52C34.9533 38.52 35.52 36.8867 35.52 34.62V18.52H39.32V34.62C39.32 36.7533 38.92 38.56 38.12 40.04C37.32 41.5067 36.1733 42.62 34.68 43.38C33.2 44.14 31.4333 44.52 29.38 44.52C27.34 44.52 25.5733 44.14 24.08 43.38C22.5867 42.62 21.4333 41.5067 20.62 40.04C19.82 38.56 19.42 36.7533 19.42 34.62V18.52Z" fill="#16A34A"/>
</svg>
