<svg width="60" height="60" viewBox="0 0 60 60" fill="none" xmlns="http://www.w3.org/2000/svg">
<path d="M0 10C0 4.47715 4.47715 0 10 0H50C55.5228 0 60 4.47715 60 10V50C60 55.5228 55.5228 60 50 60H10C4.47715 60 0 55.5228 0 50V10Z" fill="#0284C7" fill-opacity="0.2"/>
<path d="M19.9 44V18.52H29.02C31.9933 18.52 34.2533 19.2267 35.8 20.64C37.36 22.04 38.14 23.8867 38.14 26.18C38.14 28.4467 37.36 30.28 35.8 31.68C34.2533 33.08 31.9933 33.78 29.02 33.78H23.7V44H19.9ZM33.96 44L26.9 32.28H31L38.9 44H33.96ZM23.7 31.18H28.68C30.4933 31.18 31.8733 30.7467 32.82 29.88C33.7667 29 34.24 27.8667 34.24 26.48C34.24 25.0533 33.7933 23.92 32.9 23.08C32.02 22.2267 30.7267 21.8 29.02 21.8H23.7V31.18Z" fill="#0284C7"/>
</svg>
